<?xml version="1.0" standalone="no"?>
<!DOCTYPE svg PUBLIC "-//W3C//DTD SVG 20010904//EN"
 "http://www.w3.org/TR/2001/REC-SVG-20010904/DTD/svg10.dtd">
<svg version="1.0" xmlns="http://www.w3.org/2000/svg"
 width="512.000000pt" height="512.000000pt" viewBox="0 0 512.000000 512.000000"
 preserveAspectRatio="xMidYMid meet">
<metadata>
Created by potrace 1.14, written by Peter Selinger 2001-2017
</metadata>
<g transform="translate(0.000000,512.000000) scale(0.100000,-0.100000)"
fill="#000000" stroke="none">
<path d="M1706 4873 c-96 -27 -203 -156 -284 -342 -82 -189 -159 -509 -187
-771 -1 -14 -6 -59 -10 -100 -4 -41 -9 -91 -11 -110 -3 -19 -6 -172 -9 -340
l-4 -305 -39 -95 c-22 -52 -51 -144 -65 -205 -25 -106 -30 -137 -42 -270 -3
-33 -8 -71 -10 -85 -2 -14 -7 -61 -11 -105 -4 -44 -8 -91 -9 -105 -7 -68 -16
-149 -20 -180 -3 -19 -7 -66 -11 -105 -3 -38 -7 -81 -9 -95 -4 -24 -10 -89
-20 -200 -3 -30 -7 -73 -10 -95 -9 -75 -25 -230 -30 -290 -3 -33 -8 -76 -10
-95 -3 -19 -7 -64 -10 -100 -3 -36 -7 -81 -10 -100 -2 -19 -7 -59 -10 -87 -6
-56 -6 -56 56 -67 8 -1 23 -5 34 -9 11 -3 31 -8 45 -11 14 -2 84 -19 155 -36
72 -18 139 -33 150 -36 11 -2 38 -8 60 -14 44 -11 618 -148 650 -155 11 -2 88
-20 170 -40 83 -20 161 -38 175 -41 14 -3 60 -14 103 -25 73 -18 82 -19 140
-4 34 8 71 17 82 20 31 6 250 58 485 115 118 28 222 53 230 55 73 17 127 29
270 64 91 22 244 58 340 81 96 23 183 44 193 46 14 5 17 13 13 42 -3 20 -7 63
-10 95 -3 31 -9 83 -12 115 -3 31 -7 73 -9 92 -3 19 -7 67 -10 105 -4 39 -8
81 -10 95 -2 14 -11 97 -20 185 -8 88 -17 180 -20 205 -6 55 -13 117 -20 190
-9 91 -14 142 -20 195 -3 28 -7 68 -9 90 -11 118 -18 178 -21 193 -1 9 -6 52
-10 94 -18 202 -58 373 -121 517 -25 55 -25 61 -29 371 -2 173 -6 324 -8 336
-3 11 -8 58 -12 105 -4 46 -9 92 -10 101 -2 9 -6 43 -10 74 -3 32 -8 60 -9 63
-2 3 -7 26 -10 51 -11 80 -48 256 -66 315 -50 161 -68 212 -105 290 -78 170
-148 257 -240 301 -87 42 -160 26 -243 -51 -159 -147 -304 -545 -358 -980 -4
-27 -8 -57 -10 -65 -1 -8 -3 -18 -3 -21 -1 -4 -20 -2 -43 3 -54 13 -338 16
-437 4 -41 -5 -71 -5 -68 0 4 8 -3 55 -38 271 -2 18 -13 69 -24 115 -89 383
-199 608 -350 712 -36 25 -125 41 -165 29z"/>
</g>
</svg>
