<?xml version="1.0" standalone="no"?>
<!DOCTYPE svg PUBLIC "-//W3C//DTD SVG 20010904//EN"
 "http://www.w3.org/TR/2001/REC-SVG-20010904/DTD/svg10.dtd">
<svg version="1.0" xmlns="http://www.w3.org/2000/svg"
 width="512.000000pt" height="512.000000pt" viewBox="0 0 512.000000 512.000000"
 preserveAspectRatio="xMidYMid meet">
<metadata>
Created by potrace 1.14, written by Peter Selinger 2001-2017
</metadata>
<g transform="translate(0.000000,512.000000) scale(0.100000,-0.100000)"
fill="#000000" stroke="none">
<path d="M1635 4589 c-320 -64 -548 -226 -692 -489 -17 -30 -38 -76 -48 -102
-10 -27 -24 -48 -31 -48 -23 0 -218 -68 -289 -101 -300 -138 -451 -366 -460
-694 -8 -313 105 -542 344 -693 40 -26 76 -47 80 -48 3 0 33 -13 66 -28 98
-46 292 -103 471 -140 29 -7 32 -12 69 -129 61 -195 194 -569 240 -672 7 -16
28 -66 45 -110 17 -44 45 -109 62 -145 16 -36 38 -86 48 -112 11 -25 65 -139
120 -253 76 -154 111 -216 142 -246 112 -108 306 -74 372 66 18 37 25 70 57
270 23 148 73 401 95 490 42 166 113 340 173 423 38 52 75 57 111 15 59 -68
147 -281 186 -448 9 -38 17 -77 19 -85 12 -51 60 -301 70 -365 5 -30 26 -166
31 -200 22 -146 111 -229 246 -228 53 0 75 5 111 26 66 39 92 76 177 252 82
169 150 315 150 320 0 2 13 32 29 67 83 181 247 620 332 883 28 88 54 164 58
168 4 4 76 25 160 47 323 85 497 169 626 305 76 80 120 153 155 257 36 107 44
157 44 298 0 222 -61 389 -187 514 -75 75 -104 99 -153 129 -63 40 -213 107
-294 132 -126 40 -127 40 -140 82 -32 98 -122 236 -209 322 -189 185 -459 290
-731 286 -58 -1 -125 -5 -150 -9 -25 -4 -101 -16 -170 -27 -180 -29 -189 -30
-296 -45 -79 -11 -219 -5 -308 12 -12 2 -46 7 -76 10 -30 3 -57 7 -60 9 -3 2
-26 6 -50 10 -25 3 -67 10 -95 15 -104 19 -133 22 -245 24 -80 2 -142 -3 -205
-15z"/>
</g>
</svg>
